<svg width="256" height="256" viewBox="0 0 256 256" fill="none" xmlns="http://www.w3.org/2000/svg">
<g clip-path="url(#clip0_10_2)">
<rect width="256" height="256" rx="100" fill="#FB2C36"/>
<path d="M192.962 94.4975C192.962 102.857 190.012 110.085 184.111 116.182C178.211 122.181 169.606 126.508 158.296 129.164C164.394 130.835 169.016 133.589 172.163 137.424C175.31 141.161 176.883 145.489 176.883 150.406C176.883 158.175 174.425 164.911 169.507 170.615C164.689 176.319 157.608 180.745 148.265 183.892C138.923 186.94 127.662 188.465 114.484 188.465C109.567 188.465 105.633 188.317 102.683 188.022C102.585 190.776 101.405 192.841 99.1428 194.218C96.8809 195.594 93.9798 196.283 90.4394 196.283C86.899 196.283 84.4405 195.496 83.0637 193.923C81.7852 192.349 81.2443 190.038 81.441 186.989C82.3261 173.221 84.0471 158.814 86.604 143.768C89.1609 128.623 92.4063 114.019 96.34 99.9556C97.0284 97.497 98.4052 95.776 100.47 94.7925C102.536 93.8091 105.24 93.3174 108.584 93.3174C114.583 93.3174 117.582 94.9892 117.582 98.3329C117.582 99.7097 117.287 101.283 116.697 103.053C114.14 110.724 111.583 121.149 109.026 134.327C106.469 147.406 104.65 159.896 103.568 171.795C108.289 172.189 112.124 172.385 115.074 172.385C128.842 172.385 138.923 170.419 145.315 166.485C151.806 162.453 155.051 157.339 155.051 151.143C155.051 146.816 153.182 143.177 149.445 140.227C145.807 137.277 139.66 135.654 131.006 135.359C129.039 135.261 127.662 134.769 126.876 133.884C126.089 132.999 125.696 131.573 125.696 129.606C125.696 126.754 126.286 124.443 127.466 122.673C128.646 120.903 130.809 119.968 133.956 119.87C140.939 119.673 147.233 118.641 152.838 116.772C158.542 114.904 163.017 112.298 166.262 108.954C169.507 105.512 171.13 101.529 171.13 97.0053C171.13 91.3013 168.327 86.8267 162.722 83.5814C157.116 80.2377 148.511 78.5659 136.907 78.5659C126.384 78.5659 116.205 79.9427 106.371 82.6963C96.5367 85.3516 88.1775 88.7444 81.2935 92.8748C78.1465 94.7434 75.4912 95.6776 73.3277 95.6776C71.5575 95.6776 70.1807 95.0876 69.1972 93.9074C68.3121 92.629 67.8696 91.0555 67.8696 89.1869C67.8696 86.7284 68.3613 84.614 69.3447 82.8438C70.4265 81.0736 72.9343 79.0576 76.868 76.7957C85.1289 72.0752 94.8157 68.3873 105.928 65.7321C117.041 63.0768 128.4 61.7491 140.004 61.7491C157.805 61.7491 171.081 64.7486 179.834 70.7476C188.586 76.7465 192.962 84.6632 192.962 94.4975Z" fill="white"/>
</g>
<defs>
<clipPath id="clip0_10_2">
<rect width="256" height="256" fill="white"/>
</clipPath>
</defs>
</svg>
